<?xml version="1.0" encoding="UTF-8"?>
<svg id="Layer_1" data-name="Layer 1" xmlns="http://www.w3.org/2000/svg" viewBox="0 0 652.3 400.61">
  <defs>
    <style>
      .cls-1 {
        fill: #20fe8f;
      }

      .cls-2 {
        fill: #e6e7e8;
      }
    </style>
  </defs>
  <g>
    <path class="cls-1" d="M173.29,309.5v-107.12l34.99,15.78c14.67,6.62,25.54,26.56,25.54,49.19s-10.87,32.21-25.54,24.61l-20.91-10.83v36.12l-14.08-7.76ZM187.37,261.76l20.23,10.11c6.07,3.03,10.92-1.08,10.92-11.77s-4.86-19.66-10.92-22.51l-20.23-9.48v33.64Z"/>
    <g>
      <path class="cls-1" d="M209.18,179.72c-10.75,4.66-19.65-4.37-19.65-24.05s8.89-35.77,19.65-39.64c9.05-3.26,14.8,3.2,16.66,11.54l11.56-4.4c-2.43-15.77-12.01-29.6-28.23-24.08-17.72,6.03-32.39,31.83-32.39,61.64s14.67,43.96,32.39,35.93c16.49-7.48,25.89-29.09,28.23-47.14l-11.56,4.77c-1.78,10.32-7.44,21.43-16.66,25.43Z"/>
      <path class="cls-1" d="M130.91,123.36l-31.7,8.39v114.24l31.7-14.66c22.08-10.21,37.81-38.74,37.81-67.74s-15.73-46.08-37.81-40.24ZM130.91,212.05l-14.77,6.31v-71.29l14.77-4.43c13.67-4.1,23.95,6.23,23.95,26s-10.28,37.58-23.95,43.42Z"/>
    </g>
  </g>
  <g>
    <g>
      <path class="cls-2" d="M293.89,174.64h15.73c12.96,0,22.12-8.59,22.12-22.82s-9.17-22.82-22.12-22.82h-15.73c-.19,0-.32.13-.32.32v45.01c0,.19.13.32.32.32ZM303.25,137.81c0-.19.13-.32.32-.32h6.05c7.58,0,12.45,5.35,12.45,14.32s-4.87,14.36-12.45,14.36h-6.05c-.19,0-.32-.13-.32-.32v-28.04Z"/>
      <path class="cls-2" d="M352.58,175.28c10.38,0,17.06-6.75,17.06-17.13s-6.68-17.09-17.06-17.09-17.13,6.68-17.13,17.09,6.72,17.13,17.13,17.13ZM352.58,148.73c4.77,0,7.86,3.69,7.86,9.42s-3.09,9.45-7.86,9.45-7.89-3.69-7.89-9.45,3.12-9.42,7.89-9.42Z"/>
      <path class="cls-2" d="M374.56,174.64h8.66c.19,0,.32-.13.32-.32v-18.72c0-4.33,2.45-6.88,6.68-6.88s6.68,2.36,6.68,6.62v18.97c0,.19.13.32.32.32h8.59c.19,0,.32-.13.32-.32v-20.69c0-8.31-5-12.57-13.34-12.57-3.44,0-6.62.83-9.36,2.99-.19.13-.35.06-.45-.13l-.86-1.97c-.06-.19-.19-.25-.35-.25h-7.23c-.19,0-.32.13-.32.32v32.31c0,.19.13.32.32.32Z"/>
      <path class="cls-2" d="M427.48,175.28c7.29,0,13.21-3.09,15.02-10.38.06-.25-.03-.38-.25-.38h-8.47c-.16,0-.29.06-.38.22-1.15,2.23-3.31,3.28-5.83,3.28-4.17,0-7.23-2.13-8.12-6.97-.03-.22.06-.35.29-.35h22.95c.19,0,.32-.1.32-.32l.1-2.48c-.03-11.46-6.75-16.84-15.88-16.84-10,0-16.84,6.43-16.84,17.13s6.65,17.09,17.09,17.09ZM419.71,153.89c1.02-3.63,3.57-5.63,7.67-5.63,3.5,0,6.11,1.81,6.72,5.63.06.22-.1.35-.29.35h-13.82c-.22,0-.35-.13-.29-.35Z"/>
      <path class="cls-2" d="M448.16,174.64h8.66c.19,0,.32-.13.32-.32v-16.93c0-5.38,2.45-7.45,5.95-7.45h4.71c.19,0,.32-.13.32-.32v-7.61c0-.19-.13-.32-.32-.32h-3.5c-2.58,0-4.77.92-6.02,3.02-.13.22-.32.22-.45,0l-1.53-2.8c-.06-.16-.22-.22-.38-.22h-7.77c-.19,0-.32.13-.32.32v32.31c0,.19.13.32.32.32Z"/>
      <path class="cls-2" d="M333.27,213.17h-9.17c-.19,0-.29.1-.35.29-1.05,5.6-5.25,9.07-10.82,9.07-7.29,0-12.03-5.86-12.03-14.83s4.74-14.83,12.03-14.83c5.57,0,9.77,3.5,10.76,9.04.06.19.16.29.35.29h9.3c.19,0,.35-.13.32-.35-1.27-10.35-9.68-17.86-20.72-17.86-12.83,0-21.61,9.96-21.61,23.72s8.79,23.72,21.61,23.72c11.05,0,19.42-7.48,20.66-17.92.03-.19-.13-.32-.32-.32Z"/>
      <path class="cls-2" d="M354.44,196.94c-10.41,0-17.13,6.68-17.13,17.09s6.72,17.13,17.13,17.13,17.06-6.75,17.06-17.13-6.68-17.09-17.06-17.09ZM354.44,223.49c-4.77,0-7.89-3.69-7.89-9.45s3.12-9.42,7.89-9.42,7.86,3.69,7.86,9.42-3.09,9.45-7.86,9.45Z"/>
      <rect class="cls-2" x="376.11" y="184.88" width="9.3" height="45.65" rx=".32" ry=".32"/>
      <rect class="cls-2" x="391.57" y="184.88" width="9.3" height="45.65" rx=".32" ry=".32"/>
      <path class="cls-2" d="M422.61,231.16c7.29,0,13.21-3.09,15.02-10.38.06-.25-.03-.38-.25-.38h-8.47c-.16,0-.29.06-.38.22-1.15,2.23-3.31,3.28-5.83,3.28-4.17,0-7.23-2.13-8.12-6.97-.03-.22.06-.35.29-.35h22.95c.19,0,.32-.1.32-.32l.1-2.48c-.03-11.46-6.75-16.84-15.88-16.84-10,0-16.84,6.43-16.84,17.13s6.65,17.09,17.09,17.09ZM414.84,209.77c1.02-3.63,3.57-5.63,7.67-5.63,3.5,0,6.11,1.81,6.72,5.63.06.22-.1.35-.29.35h-13.82c-.22,0-.35-.13-.29-.35Z"/>
      <path class="cls-2" d="M312.58,240.76h-18.69c-.19,0-.32.13-.32.32v45.01c0,.19.13.32.32.32h9.04c.19,0,.32-.13.32-.32v-15.38c0-.19.13-.32.32-.32h9.01c8.56,0,14.87-6.27,14.87-14.83s-6.3-14.8-14.87-14.8ZM310.99,262.31h-7.42c-.19,0-.32-.13-.32-.32v-12.83c0-.19.13-.32.32-.32h7.42c3.92,0,6.75,2.83,6.75,6.72s-2.83,6.75-6.75,6.75Z"/>
      <path class="cls-2" d="M363.87,279.15h-1.24c-.86,0-1.27-.41-1.27-1.27v-12.45c0-7.67-5.54-12.61-15.31-12.61-9.17,0-14.32,4.11-15.38,10.6-.03.22.1.35.29.35h8.69c.19,0,.32-.1.35-.29.6-2.16,2.51-3.47,5.92-3.47,4.07,0,6.21,1.88,6.21,5.19v.48c0,.19-.13.32-.32.32h-9.49c-8.44,0-12.86,4.33-12.86,10.41,0,6.56,5.19,10.63,13.97,10.63,3.53,0,7.54-.67,10.09-2.96.16-.16.32-.13.41.06.92,1.56,2.74,2.26,5.16,2.26h4.77c.19,0,.32-.13.32-.32v-6.62c0-.19-.13-.32-.32-.32ZM352.28,273.35c0,4.81-3.18,6.68-7.58,6.68-4.01,0-5.95-1.56-5.95-4.07,0-2.23,1.46-3.5,4.77-3.5h8.44c.19,0,.32.13.32.32v.57Z"/>
      <path class="cls-2" d="M388.44,253.46h-3.5c-2.58,0-4.77.92-6.02,3.02-.13.22-.32.22-.45,0l-1.53-2.8c-.06-.16-.22-.22-.38-.22h-7.77c-.19,0-.32.13-.32.32v32.31c0,.19.13.32.32.32h8.66c.19,0,.32-.13.32-.32v-16.93c0-5.38,2.45-7.45,5.95-7.45h4.71c.19,0,.32-.13.32-.32v-7.61c0-.19-.13-.32-.32-.32Z"/>
      <path class="cls-2" d="M392.14,251.71v26.42c0,5.6,2.71,8.27,8.28,8.27h7.32c.19,0,.32-.13.32-.32v-7.23c0-.19-.13-.32-.32-.32h-3.37c-2.39,0-2.93-.57-2.93-2.96v-14.67c0-.19.13-.32.32-.32h5.98c.19,0,.32-.13.32-.32v-6.49c0-.19-.13-.32-.32-.32h-5.98c-.19,0-.32-.13-.32-.32v-8.47c0-.19-.13-.32-.32-.32h-8.66c-.19,0-.32.13-.32.32v7.04Z"/>
      <path class="cls-2" d="M431.64,252.82c-3.44,0-6.62.83-9.36,2.99-.19.13-.35.06-.45-.13l-.86-1.97c-.06-.19-.19-.25-.35-.25h-7.23c-.19,0-.32.13-.32.32v32.31c0,.19.13.32.32.32h8.66c.19,0,.32-.13.32-.32v-18.72c0-4.33,2.45-6.88,6.68-6.88s6.68,2.36,6.68,6.62v18.97c0,.19.13.32.32.32h8.59c.19,0,.32-.13.32-.32v-20.69c0-8.31-5-12.57-13.34-12.57Z"/>
      <path class="cls-2" d="M466.06,252.82c-10,0-16.84,6.43-16.84,17.13s6.65,17.09,17.09,17.09c7.29,0,13.21-3.09,15.02-10.38.06-.25-.03-.38-.25-.38h-8.47c-.16,0-.29.06-.38.22-1.15,2.23-3.31,3.28-5.83,3.28-4.17,0-7.23-2.13-8.12-6.97-.03-.22.06-.35.29-.35h22.95c.19,0,.32-.1.32-.32l.1-2.48c-.03-11.46-6.75-16.84-15.88-16.84ZM472.65,266h-13.82c-.22,0-.35-.13-.29-.35,1.02-3.63,3.57-5.63,7.67-5.63,3.5,0,6.11,1.81,6.72,5.63.06.22-.1.35-.29.35Z"/>
      <path class="cls-2" d="M506.64,253.46h-3.5c-2.58,0-4.77.92-6.02,3.02-.13.22-.32.22-.45,0l-1.53-2.8c-.06-.16-.22-.22-.38-.22h-7.77c-.19,0-.32.13-.32.32v32.31c0,.19.13.32.32.32h8.66c.19,0,.32-.13.32-.32v-16.93c0-5.38,2.45-7.45,5.95-7.45h4.71c.19,0,.32-.13.32-.32v-7.61c0-.19-.13-.32-.32-.32Z"/>
      <path class="cls-2" d="M525.46,265.87c-4.07-.13-7.35-.35-7.35-2.9,0-2.2,2.16-3.69,5.95-3.69,3.44,0,5.73,1.34,6.4,4.2.06.19.16.29.35.29h8.31c.19,0,.32-.13.29-.32-.73-7.51-7.16-10.63-15.12-10.63-10.22,0-14.8,5-14.8,11.11,0,6.72,5.44,9.3,13.08,9.65,4.3.16,8.63-.13,8.63,3.15,0,2.2-1.88,3.82-5.92,3.82-3.69,0-6.27-1.31-7.19-4.55-.03-.19-.16-.29-.35-.29h-8.31c-.19,0-.35.13-.29.35,1.15,7.39,6.97,10.98,15.88,10.98,9.87,0,14.8-4.42,14.8-11.33,0-8.88-8.09-9.68-14.36-9.84Z"/>
    </g>
    <path class="cls-2" d="M545.1,286.11v-10.11c0-.18.12-.3.3-.3h9.96c.18,0,.3.12.3.3v10.11c0,.18-.12.3-.3.3h-9.96c-.18,0-.3-.12-.3-.3Z"/>
  </g>
</svg>